<svg xmlns="http://www.w3.org/2000/svg" xml:space="preserve" id="Layer_1" x="0" y="0" style="enable-background:new 0 0 500 321" version="1.1" viewBox="0 0 500 321"><style>.st0{fill:#01a5f3}.st1{fill:#fff}.st2{fill:#cccdcc}</style><path d="M7.2 12.3h294.7v298H7.2z" class="st0"/><path d="M255.4 129.8s-23.4 39.9-69.5 52.4c-52 14.1-81.4 3.6-106-8.1S4.1 130.8 1.9 10.8c.2 0 16-.3 16-.3s-7.7 85 32.8 128.9c43.5 47.2 96.6 45.3 121.9 38.2s50.7-20.9 70.5-49.6c.2-.6 12.3 1.8 12.3 1.8zM278.9 44h-12.6s-.6-11-1.7-16.6c-1.2-5.7-1.7-7.4-4.9-15.6h12.7s4 9 5.1 15.6c1 6.7 1.4 16.6 1.4 16.6z" class="st1"/><path d="M37.6 84.5S63.1 40 108.3 25.8s76.8-3.6 101.6 6.7 81 47.8 88.7 133.1c-.3 0-12.3.1-12.3.1s-6.8-64.3-48-102.5c-42.8-39.6-88.1-40.5-113.6-34.3S65.4 58 50.9 86.2c-.2.5-13.3-1.7-13.3-1.7z" class="st1"/><path d="M94.9 32.7h12v62.2h-12zM94.9 119.8h12v59.3h-12zM162 119.8h12v62.1h-12zM162 23.3h12v31.8h-12zM162 69.8h12v24h-12zM213 119.8h12v40.3h-12zM213 41.5h12v23.3h-12zM213 79h12v15.8h-12zM29.9 208l11.7-.1s3.6 6.1 9.8 13.5c6.2 7.5 15 15.6 15 15.6H53.3s-6.6-5.4-12.6-12.8C34.9 217 29.9 208 29.9 208zM15.2 149.1h12.2s1.2 12.6 2.3 18.9c1.2 6.3 4.4 17.8 4.4 17.8H20.9S18 175.6 17 168c-1-7.6-1.8-18.9-1.8-18.9z" class="st1"/><path d="M135.6 157.7c-3.4 0-6.2-2.8-6.2-6.2v-94c0-3.4 2.8-6.2 6.2-6.2 3.4 0 6.2 2.8 6.2 6.2v94c0 3.4-2.8 6.2-6.2 6.2zM73 140c-3.4 0-6.2-2.8-6.2-6.2V78.2c0-3.4 2.8-6.2 6.2-6.2 3.4 0 6.2 2.8 6.2 6.2v55.7c-.1 3.3-2.8 6.1-6.2 6.1z" class="st2"/><path d="M126.8 283.3h8.3L104.7 205H95l-30.4 78.3h8.3l9.7-25.3h34.5l9.7 25.3zm-41.5-32.5L99.8 213l14.5 37.8h-29z" class="st1"/><path id="_x3C_Compound_Path_x3E_" d="M188 228.9c13 10.1 14.1 28.1 7.5 40.2-4.9 8.9-12.5 14.3-22.5 15.5-9.9 1.2-18.9-1.5-26.3-9.7.2-.2 0 27.3 0 27.3h-7.4v-77.8h7.4s.1 7.9 0 7.8c13.9-14.8 30.7-11.6 41.3-3.3zm3.2 25.2c.2-13.2-10.6-24.7-23.2-24.5-10.5.6-21.2 9.6-21.3 23.3-.1 12.9 8.8 23.5 22.1 23.9 13.5-.2 22.3-11.3 22.4-22.7z" class="st1"/><path d="M231.9 224h-11.3v-19h-7.7v19h-11.1v7.6h11.1v51.7h7.7v-51.7h11.3zM287.9 232.1c-.1.1 0-7.8 0-7.8h7.4v58.8h-7.4s-.2-8.5 0-8.3c-7.4 8.2-16.4 10.9-26.3 9.7-10-1.2-17.6-6.6-22.5-15.5-6.6-12.1-5.5-30 7.5-40.2 10.5-8.2 27.3-11.4 41.3 3.3zm-22.3 44.8c13.4-.4 22.3-11 22.1-23.9-.1-13.7-10.8-22.7-21.3-23.3-12.5-.2-23.4 11.3-23.2 24.5.2 11.3 9 22.4 22.4 22.7z" class="st1"/><path d="M310.7 287.2c.1.1 8.1-.1 8.2 0 .3 1.2 3.3 5.6 5.3 7.3 5.8 4.8 15.7 4.5 22 2 7.7-3.1 10.2-9.1 12-16.6.4-1.8.5-3.8.8-6.7-5.2 7.9-14.9 11.5-24.6 11.5-9.2 0-17.5-5.1-22.7-12.7-8.1-12.3-8-30.7 3.6-41.1 13-11.7 30.9-11.9 43.6 1.8.2-2.9.3-8.5.3-8.5h7.6v43.1s-.1 3.5-.1 6c-.2 11.8-3.5 24.9-15.9 30.4-10.8 4.7-24 4.2-33.6-4.3-2.9-2.9-6.1-6.4-6.5-12.2zm47.4-33.7c-.3-11.3-2.5-13.3-8-18.3-10.5-9.5-23-5.9-30.4 2.9-6.2 7.3-6.4 16.1-3.6 24.5 3.1 9.1 12.9 15.4 22.2 14.5 11.3-1.1 19.9-10.6 19.8-23.6zM435.7 256.1h-52.8c-.1 8.4 6.2 17.6 14.8 20.1 8.1 1.9 15.9.9 22.4-4.3 3.1-2.5 4.8-7 5.1-7.6-.2-.2 8.6 0 8.6 0-5.3 15.4-20.8 22.8-35.1 20.4-14-2.3-24.7-16.6-24.5-30.4.1-6.9 2.4-14.2 5.4-18.8 7.6-11.4 19.1-14.4 29.9-12.9 17.6 2.4 27.6 18 26.2 33.5zm-9.2-6.9c-1.6-13.1-9.7-19.5-23.1-19.2-9.8.3-19.5 6.7-20.2 19.2h43.3zM451.7 282.9H444v-59l7.7-.1s-.1 5.4 0 5.4c1.6-1.2 2.9-2.2 4.2-3 12-7.3 36-4.5 37.8 15.1.2 1.6.3 3.2.3 4.8.1 12.2 0 36.7 0 36.7h-7.8s.1-19.7-.1-29.4c-.1-4.1-.2-8.4-1.2-12.4-2.3-9.7-8.7-11.3-16.2-11.1-11.2.4-17.1 7.7-17.1 19.2.1 11.2.1 33.8.1 33.8z" class="st0"/></svg>