<svg xmlns="http://www.w3.org/2000/svg" xml:space="preserve" id="Ebene_1" x="0" y="0" style="enable-background:new 0 0 174.7 79.1" version="1.1" viewBox="0 0 174.7 79.1"><style>.st0{fill:#e1211c}</style><path d="M37.2 27c-17.5-2.6-21.8 3.4-21.8 19.4 0 15.5 4.3 21.2 23.2 19.3 5.9-.6 7.4 1.3 8.5 10.5-2 1.1-11.1 2.6-17.5 2.5-9.5-.3-17.4-2.6-22-8C2.9 65.4.7 57.1.7 45.9c0-22.5 10.1-31.8 29.8-31.8 9.6 0 16.1 2.9 16.1 2.9-1.7 10.3-3.4 11-9.4 10zM70.1 70.3c0 3.6-4.2 7.5-7.8 7.5H56v-63h14.2l-.1 55.5zM86.9 14.9h18.2c6.9 0 12 1.4 15.4 4.3 3.4 2.9 5.1 6.8 5.1 11.8 0 3.6-.8 6.4-2.3 8.6-1.5 2.2-3.6 3.9-6.1 4.9v.2c7.1 2 10.6 6.9 10.6 14.8 0 2.8-.4 5.4-1.3 7.6-.9 2.2-2.2 4.2-4 5.8-1.8 1.6-4.1 2.8-6.9 3.7-2.8.9-6.2 1.2-10.2 1.2H79.5V22.3c.1-2.9 4.4-7.4 7.4-7.4zm26.9 43.5c0-2.7-.6-4.6-1.9-5.7-1.3-1.2-3.4-1.7-6.6-1.7H93.1v15.2h12.5c2.8 0 4.9-.6 6.2-1.7 1.3-1 2-3 2-6.1zm-1.6-24.9c0-2.5-.6-4.3-1.8-5.3-1.2-1-3.1-1.5-5.8-1.5H93.3v13.7H105c2.5 0 4.4-.6 5.5-1.6 1.1-1 1.7-2.7 1.7-5.3zM162.9 51c4.6 0 11.7-7.5 11.7-11.5V0h-36.1v51h24.4z" class="st0"/></svg>