<svg xmlns="http://www.w3.org/2000/svg" xml:space="preserve" style="enable-background:new 0 0 264 50" viewBox="0 0 264 50"><path d="M26.065 45.17c-9 0-16-8.5-16-20.1 0-12.5 5.1-20.6 15.1-20.6 8.3 0 11.6 4.3 13 9.7h3.2c-.4-3.2-1-8.7-.9-9.9-2.8-.6-8-3.2-15.7-3.2-13.7 0-23.6 9.4-23.6 24.2 0 14.4 11.4 23.6 23.5 23.6 5.6 0 11.1-1.3 15.8-4.8.2-1.2 1-4.5 1.8-7.2h-3.5c-2.8 6-7.6 8.3-12.7 8.3M63.565 43.97c-3 0-4.3-.7-4.3-4.2v-29.4c0-3.5 1.2-4 4.1-4h1.9v-3.6h-19.5v3.6h2c2.8 0 4.1 1 4.1 4v29.4c0 3-1.7 4.2-4.4 4.2h-1.9v3.6h19.7v-3.6h-1.7zM69.565 2.67v11.8h3.4v-2.4c0-3 1.1-5.8 5.1-5.8h6.8v33.4c0 3-1.8 4.2-4.6 4.2h-2v3.6h20.5v-3.5h-2c-2.7 0-4.6-1.3-4.6-4.2V6.37h6.8c4 0 5.1 2.7 5.1 5.8v2.4h3.4V2.77l-37.9-.1zM129.565 43.97c-3 0-4.3-.7-4.3-4.2v-29.4c0-3.5 1.2-4 4.1-4h1.9v-3.6h-19.5v3.6h2c2.8 0 4.1 1 4.1 4v29.4c0 3-1.7 4.2-4.4 4.2h-1.9v3.6h19.7v-3.6h-1.7zM168.165 35.37v.8c0 3.7-1.1 7.8-9 7.8h-13.8l25.7-37.6v-3.6h-33.9v12.2h3.4v-1.5c0-3.8 1.8-7 7-7h14.4l-25.7 37.5v3.6h35.2v-12.2h-3.3zM209.865 35.27v1.2c0 4-2 7.4-6.9 7.4h-13.4v-17.6h8c3.2 0 4 2.7 4 4.7v1.9h3.5v-16.9h-3.5v1.5c0 2-.8 4.7-4 4.7h-8V6.27h12.8c6.3 0 6.5 5.4 6.5 7.3v1h3.4V2.67h-35.8v3.6h.8c3.1 0 4.7.4 4.7 3.1v30.7c0 3.2-2.1 3.7-4.1 3.7h-1.2v3.6h36.4v-12.3h-3.2v.2zM246.565 2.67v3.6h1c3.5 0 4.8 1.2 4.8 4.3v25l-22.5-32.9h-11.8v3.6h1.1c2.1 0 3.9.9 3.9 4.4v29.4c0 3-2.1 3.9-3.8 3.9h-1.6v3.6h15.3v-3.6h-1.5c-1.7 0-4.1-.4-4.1-3.9v-27.5l24 35h5.3v-37.1c0-3 1.3-4.3 4.8-4.3h1v-3.6h-15.9z"/></svg>