<svg xmlns="http://www.w3.org/2000/svg" xml:space="preserve" style="enable-background:new 0 0 105.5 58.6" viewBox="0 0 105.5 58.6"><path d="M.3.3h104.8v58H.3z" style="fill:#f63815"/><path d="M93.4 21.3v-6.9c0-2-1.6-3.6-3.6-3.6H11.1v39.8h77.8c2.5 0 4.4-2 4.4-4.4V33.6c0-3.5-2.8-6.3-6.3-6.3H62.5c-2.5 0-4.5-2-4.5-4.5v-3.9c0-1.2 1-2.1 2.1-2.1h25.4c1.2 0 2.1 1 2.1 2.1v2.5l5.8-.1zm-32.7 12H84c1.4 0 2.5 1.1 2.5 2.5v6.8c0 1.4-1.1 2.5-2.5 2.5H62.5c-2.4 0-4.3-1.9-4.3-4.3v-2.5h-6.5v7H18.2v-12h20v-6.9h-20v-9.9h33.5v8.1c0 4.8 3.9 8.7 8.7 8.7h.3z" style="fill:#fff"/></svg>