<svg xmlns="http://www.w3.org/2000/svg" xml:space="preserve" id="Layer_1" x="0" y="0" style="enable-background:new 0 0 255 88" version="1.1" viewBox="0 0 255 88"><style>.st0{fill:#58585a}</style><path d="M18.4 67.9v12h-4.2v-12h-3.9v-3.6h12.3v3.6h-4.2zM31.5 64.2c1.9 0 3.3.2 4.1.5 1.5.7 2.3 1.8 2.7 3.4.1.7.2 2 .2 4 0 1.7-.1 2.9-.2 3.5-.3 1.8-1.1 3-2.5 3.7-1 .5-2.6.7-4.9.7-2.2 0-3.7-.3-4.6-.8-1.2-.7-1.9-1.8-2.2-3.2-.1-.6-.2-1.6-.2-3 0-2.6.1-4.4.4-5.4.4-1.4 1.4-2.3 3-2.9 1-.3 2.3-.5 4.2-.5zm-.1 3.6c-1 0-1.6.1-2 .2-.6.2-.9.9-1.1 1.9v2.4c0 1.6.1 2.7.3 3.1.2.4.6.7 1.2.9.3.1.8.1 1.6.1.7 0 1.3-.1 1.5-.1.5-.2.9-.5 1.1-1 .2-.5.3-1.6.3-3.4 0-1.7-.1-2.8-.3-3.2-.2-.4-.5-.7-1.1-.9-.3.1-.8 0-1.5 0zM40.4 79.9V64.3h7.8c1.1 0 1.9.1 2.5.3 1.3.4 2.1 1.2 2.6 2.5.2.7.3 1.6.3 3 0 1.6-.1 2.7-.4 3.4-.5 1.4-1.5 2.1-3.1 2.4 0 0-.8 0-2.3.1h-3.2v4h-4.2zm4.2-7.6h2.6c.8 0 1.3-.1 1.5-.2.4-.2.6-.9.6-2 0-1.2-.3-1.9-.8-2.1-.3-.1-.7-.2-1.3-.2h-2.7l.1 4.5zM70.1 64.3v15.6h-4.2v-6.1h-5.4v6.1h-4.2V64.3h4.2v5.9h5.4v-5.9h4.2zM79.9 64.2c1.9 0 3.3.2 4.1.5 1.5.7 2.3 1.8 2.7 3.4.1.7.2 2 .2 4 0 1.7-.1 2.9-.2 3.5-.3 1.8-1.1 3-2.5 3.7-1 .5-2.6.7-4.9.7-2.2 0-3.7-.3-4.6-.8-1.2-.7-1.9-1.8-2.2-3.2-.1-.6-.2-1.6-.2-3 0-2.6.1-4.4.4-5.4.4-1.4 1.4-2.3 3-2.9.9-.3 2.3-.5 4.2-.5zm-.1 3.6c-1 0-1.6.1-2 .2-.6.2-.9.9-1.1 1.9v2.4c0 1.6.1 2.7.3 3.1.2.4.6.7 1.2.9.3.1.8.1 1.6.1.7 0 1.3-.1 1.5-.1.5-.2.9-.5 1.1-1 .2-.5.3-1.6.3-3.4 0-1.7-.1-2.8-.3-3.2-.2-.4-.5-.7-1.1-.9-.3.1-.8 0-1.5 0zM96.3 67.9v12h-4.2v-12h-3.9v-3.6h12.3v3.6h-4.2zM106.3 67.8v2.8h6.7v2.9h-6.7v3h7.3v3.4h-11.4V64.3h11.3v3.4l-7.2.1zM121.2 64.3v12h6.5v3.6H117V64.3h4.2zM129.3 79.9V64.3h7.8c1.1 0 1.9.1 2.5.3 1.3.4 2.1 1.2 2.6 2.5.2.7.3 1.6.3 3 0 1.6-.1 2.7-.4 3.4-.5 1.4-1.5 2.1-3.1 2.4 0 0-.8 0-2.3.1h-3.2v4h-4.2zm4.2-7.6h2.6c.8 0 1.3-.1 1.5-.2.4-.2.6-.9.6-2 0-1.2-.3-1.9-.8-2.1-.3-.1-.7-.2-1.3-.2h-2.7l.1 4.5zM144.1 79.9V64.3h7.9c1.6 0 2.8.2 3.5.5.8.4 1.4 1 1.7 1.8.2.6.4 1.5.4 2.5 0 2.1-.3 3.4-1 4-.3.3-1 .5-1.9.7v.2c1.9.1 2.8 1.1 2.8 3.1v2.8h-4.3v-2.1c0-1.4-.6-2.1-1.7-2.1h-3.1v4.1l-4.3.1zm4.2-7.7h3.3c.8 0 1.3-.2 1.5-.7.1-.3.2-.9.2-1.7 0-.8-.1-1.3-.3-1.5-.2-.2-.7-.4-1.5-.4h-3.1v4.3zM167.5 64.2c1.9 0 3.3.2 4.1.5 1.5.7 2.3 1.8 2.7 3.4.1.7.2 2 .2 4 0 1.7-.1 2.9-.2 3.5-.3 1.8-1.1 3-2.5 3.7-1 .5-2.6.7-4.9.7-2.2 0-3.7-.3-4.6-.8-1.2-.7-1.9-1.8-2.2-3.2-.1-.6-.2-1.6-.2-3 0-2.6.1-4.4.4-5.4.4-1.4 1.4-2.3 3-2.9.9-.3 2.3-.5 4.2-.5zm-.1 3.6c-1 0-1.6.1-2 .2-.6.2-.9.9-1.1 1.9v2.4c0 1.6.1 2.7.3 3.1.2.4.6.7 1.2.9.3.1.8.1 1.6.1.7 0 1.3-.1 1.5-.1.5-.2.9-.5 1.1-1s.3-1.6.3-3.4c0-1.7-.1-2.8-.3-3.2-.2-.4-.5-.7-1.1-.9-.3.1-.8 0-1.5 0zM186.9 64.3v10.5c0 1 0 1.6-.1 1.9-.1.7-.3 1.3-.6 1.7-.5.7-1.2 1.1-2.1 1.4-.5.1-1.4.2-2.5.2-1.9 0-3.2-.2-3.8-.5-.8-.4-1.4-1.2-1.6-2.2-.1-.5-.2-1.5-.2-2.9v-1h3.9v.3c0 1.2 0 1.9.1 2.1.1.4.5.6 1.3.6.7 0 1.2-.3 1.3-.8 0-.2.1-.5.1-1.2V64.3h4.2zM194 67.8v2.8h6.7v2.9H194v3h7.2v3.4h-11.4V64.3h11.3v3.4l-7.1.1zM213.4 74h4.1v.5c0 .9 0 1.5-.1 1.9-.1.7-.3 1.3-.5 1.7-.7 1-1.6 1.6-2.9 1.8-.5.1-1.5.1-3.1.1h-2.2c-.9-.1-1.6-.2-2.1-.5-1.6-.8-2.5-2.3-2.7-4.7-.1-1-.1-2.4-.1-4.1 0-1.2.1-2.1.2-2.7.2-1 .6-1.7 1.2-2.3.7-.7 1.7-1.1 2.9-1.4.6-.1 1.7-.2 3.2-.2 1.7 0 2.9.1 3.5.3 1.5.5 2.3 1.7 2.5 3.6 0 .3.1.9.1 1.7h-4.1v-.3c0-.8-.3-1.4-.7-1.6-.3-.2-.9-.2-1.9-.2-1.3 0-2.1.4-2.4 1.1-.2.4-.2 2-.2 4.6 0 1.2.2 1.9.5 2.3.3.4 1.1.6 2.2.6.9 0 1.6-.1 1.9-.3.5-.3.7-.8.7-1.6V74zM227.2 67.9v12H223v-12h-3.9v-3.6h12.3v3.6h-4.2zM245.3 69.2h-4c0-.5 0-.9-.1-1-.1-.3-.4-.5-.7-.7-.3-.1-.7-.1-1.3-.1-.9 0-1.5.1-1.7.2-.5.2-.8.7-.8 1.4 0 .6.2 1 .4 1.1.2.1.8.2 1.6.3l2.4.2c.9.1 1.7.2 2.4.4.9.3 1.5.8 1.9 1.6.3.5.4 1.4.4 2.5 0 1.3-.1 2.2-.4 2.8-.4 1.1-1.4 1.8-3 2.1-.7.1-1.7.2-3.1.2-2.1 0-3.7-.1-4.5-.4-1.4-.4-2.2-1.5-2.3-3.2 0-.4-.1-.9-.1-1.6h4v.3c0 .7.2 1.2.6 1.4.3.2 1.1.2 2.3.2h1.1c.4-.1.7-.2 1-.5.2-.2.3-.6.3-1.1 0-.6-.2-1-.5-1.2-.2-.1-.7-.2-1.4-.2-2.4-.2-3.9-.3-4.6-.5-1.1-.3-1.8-.8-2.2-1.6-.3-.6-.5-1.6-.5-2.8 0-1.9.4-3.1 1.3-3.7.6-.4 1.5-.7 2.6-.9.6-.1 1.5-.1 2.8-.1 2.5 0 4.2.3 4.9.9.9.7 1.3 1.8 1.3 3.4-.1 0-.1.3-.1.6zM181.8 48.1h-10.6V4.7l-1.4 1-1.9 1.3-.9.8-1 1.1-1.1 1.1-1 1.2-1.6 2.3-1.5 2.8-.9 1.6-.7 1.9-.8 1.9-.6 2.1-.6 2.2-.6 2.4-.5 2.6-.4 2.7-.4 3-.3 3.1-.2 3.2v5h-9.3V17.7H142V7.5h-15V33h-4.3v5.4h-6.8v9.7h-7.7V25.6H97.5v10.2h-4.6V40h-9.1V16.5l-4.1-2.2-4.1 2.2v31.6H65.1v-8.2h-1.9v-4.3H55v4.3h-5.5v8.2H.7l46.2-2.7v-8.2h5.5v-4.3H66v4.3h1.9v8.2H73V14.9l6.8-3.7 6.8 3.7v22.3h3.7V33h4.6V22.9h16.3v22.5h2.2v-9.7h6.8v-5.5h4.3V4.8h20.4V15h3.5v30.5h3.8l.1-3.5.1-3.2.4-3.1.4-2.8.4-2.7.6-2.6.5-2.5.8-2.2.6-2.1.9-2 .7-1.9.9-1.7.9-1.6.9-1.5 1.7-2.6 1.9-2.1 1.7-1.9 1.6-1.4 1.6-1 1.3-.8 1-.5 1.1-.5 1.7-.5v44.7h5.2V32.9h7.3l4.3-4.8h14.4v5h4.5v12.4l44.8 2.7H207V35.7h-4.5v-5h-10.4l-4.3 4.8H182l-.2 12.6z" class="st0"/></svg>