<svg xmlns="http://www.w3.org/2000/svg" viewBox="0 0 266 55"><style>.st1{fill:#706259}</style><path d="m109.9 21.2 5-2.2 12.4-5.4-17.5-7.8V1.4l23.2 10v4.2l-23.1 10.1v-4.5z" style="fill:#a22a2e"/><path d="m156.1 5.9-5 2.2-12.4 5.4 17.5 7.8v4.5L133 15.7v-4.2l23.1-10.1v4.5zM10.6 51.9H8.1l-6-13.7h2.7l4.6 10.4L14 38.2h2.7l-6.1 13.7zM19.6 51.9V38.3h11.7v2.1h-9.2V44h7.2v2.1h-7.2v3.7h9.2v2.1H19.6zM46.4 51.9 38 42.1v9.8h-2.5V38.3h2.4l8.4 9.8v-9.8h2.5V52l-2.4-.1zM63.7 51.3c-1.3.7-2.7.9-4.3.9-1.7 0-3.1-.3-4.4-1-1.5-.8-2.3-1.9-2.3-3.4h2.5c0 .9.5 1.5 1.4 1.8.8.3 1.6.4 2.7.4s2-.1 2.7-.4c.9-.4 1.4-.9 1.4-1.6 0-.9-.8-1.5-2.5-1.8-.8-.1-1.7-.3-2.5-.4-.8-.1-1.6-.3-2.4-.4-2-.6-2.9-1.8-2.9-3.5 0-1.3.7-2.3 2.1-3.1 1.2-.7 2.6-1 4.2-1s2.9.3 4.1 1c1.4.8 2.1 1.9 2.1 3.3h-2.5c0-.8-.4-1.4-1.2-1.7-.7-.3-1.6-.5-2.5-.5s-1.8.1-2.5.4c-.8.4-1.3.9-1.3 1.6 0 .9.8 1.5 2.5 1.8.8.1 1.6.3 2.5.4.8.1 1.6.3 2.5.4 2 .6 2.9 1.7 2.9 3.4 0 1.5-.7 2.6-2.3 3.4zM76.9 40.3v11.6h-2.5V40.3h-5.2v-2.1h12.9v2.1h-5.2zM96.1 51.9l-1.3-3-3.2-7.4L87 51.9h-2.7l6-13.7h2.5l6 13.7h-2.7zM113 51.9l-3.7-4.7c-.5-.7-1.5-1.1-2.8-1.1h-2.1v5.8h-2.5V38.3h7c1.4 0 2.6.3 3.6 1.1 1.1.8 1.6 1.7 1.6 2.9 0 .9-.4 1.7-1.1 2.4-.6.6-1.3.9-2.1 1.2.3.2.7.6 1.1 1.1l3.9 5-2.9-.1zm-2.2-11c-.5-.3-1.2-.5-1.9-.5h-4.5V44h4.5c.7 0 1.3-.2 1.9-.5s.9-.8.9-1.3c0-.6-.3-1-.9-1.3zM130.7 51.9V38.3h11.7v2.1h-9.2V44h7.2v2.1h-7.2v3.7h9.2v2.1h-11.7zM157.1 51.9l-4.2-5-4.3 5h-3.1l5.8-6.9-5.8-6.8h3.1l4.3 5 4.2-5h3.1l-5.8 6.8 5.8 6.9h-3.1zM177.4 50.2c-1.7 1.4-3.7 2.1-6.1 2.1-2.3 0-4.4-.7-6.1-2.1-1.7-1.4-2.5-3.1-2.5-5.1s.8-3.6 2.5-5.1c1.7-1.4 3.7-2.1 6.1-2.1 2.4 0 4.5.8 6.3 2.3l-1.8 1.5c-1.3-1.1-2.8-1.6-4.5-1.6s-3.1.5-4.3 1.5-1.8 2.2-1.8 3.6.6 2.6 1.8 3.6 2.6 1.5 4.3 1.5 3.2-.6 4.5-1.6l1.6 1.3v.2zM192.3 51.9v-5.8H184v5.8h-2.5V38.3h2.5V44h8.2v-5.8h2.5v13.7h-2.4zM209.6 51.9l-1.3-3-3.2-7.4-4.6 10.4h-2.7l6-13.7h2.5l6 13.7h-2.7zM226.3 51.9l-8.4-9.8v9.8h-2.5V38.3h2.4l8.4 9.8v-9.8h2.5V52l-2.4-.1zM248.2 49c-1.6 2-4.3 3.2-7.2 3.2-2.3 0-4.4-.7-6.1-2.1-1.7-1.4-2.5-3.1-2.5-5.1s.9-3.7 2.5-5.1c1.7-1.4 3.7-2.1 6.1-2.1 2.7 0 5.3 1.2 7.1 3.1l-2.1 1.2c-1.2-1.4-3.1-2.2-5-2.2-1.7 0-3.1.5-4.3 1.5s-1.8 2.2-1.8 3.6.6 2.6 1.8 3.6 2.6 1.5 4.3 1.5c1.9 0 3.5-.6 4.7-1.9V46h-5v-2h7.5v5zM252.2 51.9V38.3h11.7v2.1h-9.2V44h7.2v2.1h-7.2v3.7h9.2v2.1h-11.7z" class="st1"/></svg>