<svg xmlns="http://www.w3.org/2000/svg" width="205" height="30"><g fill="none" fill-rule="evenodd"><path fill="#79BC43" d="M12.752 8.592a5.407 5.407 0 0 1-.917-3.022c0-1.027.285-1.988.78-2.807C12.264 3.322.955 21.389.955 21.389c-.023.036-.04.074-.062.11-.045.074-.087.15-.129.226a5.396 5.396 0 0 0-.713 2.051l-.008.059a5.325 5.325 0 0 0-.042.653v.02a5.442 5.442 0 0 0 9.465 3.66l.026-.028.128-.148.038-.045a5.61 5.61 0 0 0 .502-.726l.001-.002.027-.037 7.092-11.342-4.469-7.147a2.015 2.015 0 0 1-.058-.101"/><path fill="#57C1E9" d="M34.559 24.5v-.012c0-.074-.003-.147-.006-.22l-.004-.089a5.336 5.336 0 0 0-.04-.403 5.4 5.4 0 0 0-.713-2.051 6.083 6.083 0 0 0-.13-.225c-.021-.037-.039-.075-.061-.11 0 0-11.31-18.068-11.662-18.627.496.82.781 1.78.781 2.807a5.41 5.41 0 0 1-.917 3.022 2.021 2.021 0 0 1-.059.1L17.28 15.84l7.093 11.342.026.037.002.002a5.413 5.413 0 0 0 .307.473l.07.095c.041.054.082.106.125.158l.037.045c.042.05.085.099.129.148l.025.028a5.442 5.442 0 0 0 9.465-3.66V24.5"/><path fill="#4E9D2D" d="M21.807 8.592a5.41 5.41 0 0 0 .917-3.022 5.409 5.409 0 0 0-.781-2.807l-.052-.083a5.96 5.96 0 0 0-.132-.2l-.057-.08a5.235 5.235 0 0 0-.258-.333l-.07-.08a5.546 5.546 0 0 0-.123-.135l-.078-.081a4.92 4.92 0 0 0-.216-.21c-.02-.02-.04-.037-.061-.055a4.363 4.363 0 0 0-.117-.1c-.02-.017-.039-.034-.06-.05a5.693 5.693 0 0 0-.17-.135l-.037-.027a5.345 5.345 0 0 0-.169-.12l-.03-.02a5.465 5.465 0 0 0-.668-.383l-.018-.009a4.998 4.998 0 0 0-.487-.204 5.316 5.316 0 0 0-.754-.214L18.359.24a5.33 5.33 0 0 0-.232-.041l-.025-.005a5.792 5.792 0 0 0-.234-.03L17.8.158a5.351 5.351 0 0 0-.224-.017L17.54.138h-.003a5.618 5.618 0 0 0-.52 0l-.036.002a5.302 5.302 0 0 0-.525.053l-.025.005a5.255 5.255 0 0 0-.232.041l-.027.005a5.377 5.377 0 0 0-.754.214l-.021.007c-.079.03-.157.06-.234.093l-.012.005a5.163 5.163 0 0 0-.22.1l-.019.008c-.07.034-.14.07-.21.107l-.043.024a5.66 5.66 0 0 0-.198.113l-.01.006c-.07.043-.139.087-.207.133l-.03.02a5.036 5.036 0 0 0-.168.12c-.012.01-.025.018-.037.027a6.088 6.088 0 0 0-.171.135l-.06.05c-.039.032-.078.066-.116.1l-.061.054a6.192 6.192 0 0 0-.217.21l-.077.082a5.01 5.01 0 0 0-.123.135l-.07.08a8.507 8.507 0 0 0-.137.17 5.235 5.235 0 0 0-.121.163 7.814 7.814 0 0 0-.189.28c-.017.028-.036.055-.052.083a5.406 5.406 0 0 0-.781 2.807c0 1.119.338 2.158.917 3.022.018.034.037.068.058.1l4.47 7.148 4.468-7.147c.021-.033.04-.067.059-.101"/><g fill="#5C676E"><path d="m50.36 12.581-1.7 4.343h3.42l-1.72-4.343Zm-1.185-4.066h2.55L57.81 22.49h-3.478l-1.206-2.961h-5.434l-1.167 2.96h-3.399l6.048-13.975ZM72.613 17.102c0 .829-.125 1.592-.376 2.29a5.037 5.037 0 0 1-1.116 1.816c-.494.513-1.11.915-1.848 1.204-.738.29-1.588.434-2.55.434-.974 0-1.83-.145-2.568-.434-.738-.29-1.354-.69-1.848-1.204a5.029 5.029 0 0 1-1.117-1.816 6.73 6.73 0 0 1-.375-2.29V8.515h3.083v8.469c0 .434.069.835.207 1.204.138.368.333.687.583.957.25.27.55.48.9.632.348.151.727.227 1.136.227.408 0 .783-.076 1.126-.227a2.67 2.67 0 0 0 .89-.632c.25-.27.444-.589.583-.957a3.4 3.4 0 0 0 .207-1.204v-8.47h3.083v8.588M86.21 12.147a3.022 3.022 0 0 0-1.117-.849c-.442-.197-.952-.296-1.532-.296a3.86 3.86 0 0 0-1.61.336 3.856 3.856 0 0 0-1.285.937 4.371 4.371 0 0 0-.85 1.432 5.143 5.143 0 0 0-.306 1.796c0 .658.102 1.26.306 1.806.205.546.485 1.02.84 1.421a3.8 3.8 0 0 0 1.255.938c.481.224.998.336 1.552.336.632 0 1.192-.132 1.68-.395.487-.263.889-.632 1.205-1.106l2.569 1.915a5.346 5.346 0 0 1-2.253 1.836 6.972 6.972 0 0 1-2.806.592c-1.094 0-2.102-.17-3.024-.513a6.921 6.921 0 0 1-2.391-1.47 6.67 6.67 0 0 1-1.571-2.32c-.376-.908-.563-1.921-.563-3.04s.187-2.132.563-3.04c.375-.908.899-1.681 1.571-2.32a6.926 6.926 0 0 1 2.391-1.47c.922-.342 1.93-.514 3.024-.514.395 0 .807.037 1.235.109.428.072.85.187 1.265.345a5.65 5.65 0 0 1 1.196.632c.382.263.724.586 1.027.967l-2.372 1.935M94.905 11.239h-3.992V8.515h11.067v2.724h-3.992v11.252h-3.083V11.239M105.102 22.491h3.083V8.515h-3.083zM115.043 15.503c0 .658.102 1.26.306 1.806.204.546.497 1.02.88 1.421.381.402.84.714 1.373.938.533.224 1.13.336 1.788.336.66 0 1.255-.112 1.789-.336a4.01 4.01 0 0 0 2.253-2.359 5.117 5.117 0 0 0 .306-1.806c0-.645-.102-1.244-.306-1.796a4.128 4.128 0 0 0-.88-1.432 4.018 4.018 0 0 0-1.373-.937 4.588 4.588 0 0 0-1.789-.336c-.659 0-1.255.112-1.788.336a4.017 4.017 0 0 0-1.374.937 4.11 4.11 0 0 0-.879 1.432 5.136 5.136 0 0 0-.306 1.796Zm-3.202 0c0-1.119.188-2.132.563-3.04.376-.908.9-1.681 1.572-2.32a6.926 6.926 0 0 1 2.39-1.47c.923-.342 1.93-.514 3.024-.514s2.102.172 3.024.514a6.93 6.93 0 0 1 2.391 1.47 6.674 6.674 0 0 1 1.571 2.32c.376.908.564 1.921.564 3.04s-.188 2.132-.564 3.04a6.673 6.673 0 0 1-1.57 2.32 6.925 6.925 0 0 1-2.392 1.47c-.922.342-1.93.513-3.024.513-1.093 0-2.101-.17-3.023-.513a6.921 6.921 0 0 1-2.391-1.47 6.67 6.67 0 0 1-1.572-2.32c-.375-.908-.563-1.921-.563-3.04ZM130.635 8.515h4.19l5.948 9.712h.04V8.515h3.083v13.976h-4.032l-6.107-9.949h-.039v9.949h-3.083V8.515M148.026 20.793c0-.25.046-.486.138-.71a1.76 1.76 0 0 1 .385-.583c.165-.164.36-.292.583-.384.224-.092.462-.139.712-.139.25 0 .487.047.711.139.224.092.419.22.583.384.165.165.293.36.386.583.092.224.138.46.138.71 0 .25-.046.487-.138.711a1.764 1.764 0 0 1-.968.967 1.855 1.855 0 0 1-.712.138c-.25 0-.488-.046-.712-.138a1.758 1.758 0 0 1-.968-.967 1.843 1.843 0 0 1-.138-.71M164.942 12.147a3.025 3.025 0 0 0-1.116-.849c-.442-.197-.952-.296-1.532-.296a3.86 3.86 0 0 0-1.61.336 3.858 3.858 0 0 0-1.285.937 4.371 4.371 0 0 0-.85 1.432 5.143 5.143 0 0 0-.306 1.796c0 .658.102 1.26.306 1.806.204.546.484 1.02.84 1.421a3.8 3.8 0 0 0 1.255.938c.48.224.998.336 1.551.336.633 0 1.192-.132 1.68-.395a3.34 3.34 0 0 0 1.206-1.106l2.569 1.915a5.347 5.347 0 0 1-2.253 1.836 6.975 6.975 0 0 1-2.807.592c-1.093 0-2.101-.17-3.023-.513a6.92 6.92 0 0 1-2.391-1.47 6.67 6.67 0 0 1-1.571-2.32c-.376-.908-.564-1.921-.564-3.04s.188-2.132.564-3.04a6.67 6.67 0 0 1 1.57-2.32 6.924 6.924 0 0 1 2.392-1.47c.922-.342 1.93-.514 3.023-.514.396 0 .808.037 1.236.109.428.072.85.187 1.264.345a5.65 5.65 0 0 1 1.196.632c.382.263.725.586 1.028.967l-2.372 1.935M173.38 15.503c0 .658.103 1.26.307 1.806a4.13 4.13 0 0 0 .88 1.421c.382.402.84.714 1.373.938.534.224 1.13.336 1.789.336.658 0 1.255-.112 1.788-.336a4.009 4.009 0 0 0 2.253-2.359 5.124 5.124 0 0 0 .306-1.806c0-.645-.102-1.244-.306-1.796a4.123 4.123 0 0 0-.88-1.432 4.017 4.017 0 0 0-1.373-.937 4.585 4.585 0 0 0-1.788-.336c-.66 0-1.255.112-1.789.336a4.012 4.012 0 0 0-1.373.937 4.116 4.116 0 0 0-.88 1.432 5.136 5.136 0 0 0-.306 1.796Zm-3.2 0c0-1.119.187-2.132.563-3.04.375-.908.899-1.681 1.57-2.32a6.927 6.927 0 0 1 2.392-1.47c.922-.342 1.93-.514 3.024-.514 1.093 0 2.101.172 3.023.514.922.342 1.72.832 2.392 1.47a6.67 6.67 0 0 1 1.57 2.32c.376.908.564 1.921.564 3.04s-.188 2.132-.563 3.04a6.67 6.67 0 0 1-1.571 2.32 6.928 6.928 0 0 1-2.392 1.47c-.922.342-1.93.513-3.023.513-1.094 0-2.102-.17-3.024-.513a6.923 6.923 0 0 1-2.391-1.47 6.673 6.673 0 0 1-1.571-2.32c-.376-.908-.564-1.921-.564-3.04ZM188.973 8.515h4.664l3.222 9.12h.039l3.241-9.12h4.644v13.976H201.7V11.772h-.039l-3.676 10.719h-2.352l-3.537-10.719h-.04v10.719h-3.083V8.515"/></g></g></svg>