<svg xmlns="http://www.w3.org/2000/svg" width="300" height="56.391"><path d="M0 0c-1.38 0-2 .324-2 1.963v13.64c0 1.631.52 1.835 1.9 1.835h.87v1.685h-9.01v-1.685h.97c1.29 0 1.89-.441 1.89-1.835V1.963C-5.38.572-6.13 0-7.42 0h-.87v-1.682H.83V0H0Z" style="fill:#000;fill-opacity:1;fill-rule:nonzero;stroke:none" transform="matrix(2.46057 0 0 -2.46057 72.307 49.942)"/><path d="M0 0c-1.38 0-2 .324-2 1.963v13.64c0 1.631.52 1.835 1.9 1.835h.88v1.685h-9.01v-1.685h.96c1.29 0 1.88-.441 1.88-1.835V1.963C-5.39.572-6.14 0-7.41 0h-.88v-1.682H.83V0H0Z" style="fill:#000;fill-opacity:1;fill-rule:nonzero;stroke:none" transform="matrix(2.46057 0 0 -2.46057 147.453 49.942)"/><path d="M0 0v-5.482h1.56v1.142c0 1.38.5 2.655 2.37 2.655h3.18V-17.16c0-1.391-.83-1.963-2.12-1.963h-.94v-1.682h9.5v1.682h-.94c-1.28 0-2.11.572-2.11 1.963v15.475h3.17c1.87 0 2.37-1.275 2.37-2.655v-1.142h1.56V0H0Z" style="fill:#000;fill-opacity:1;fill-rule:nonzero;stroke:none" transform="matrix(2.46057 0 0 -2.46057 79.05 2.889)"/><path d="M0 0v-.368c0-1.728-.48-3.597-4.17-3.597h-6.4L1.34 13.474v1.684h-15.73V9.525h1.59v.69c0 1.775.82 3.259 3.23 3.259 1.46 0 6.68-.017 6.68-.017L-14.76-3.965v-1.681H1.56V0H0Z" style="fill:#000;fill-opacity:1;fill-rule:nonzero;stroke:none" transform="matrix(2.46057 0 0 -2.46057 191.497 40.187)"/><path d="M0 0v-.556c0-1.855-.91-3.436-3.21-3.436h-6.18v8.151h3.72c1.5 0 1.84-1.265 1.84-2.16v-.866h1.63v7.799h-1.63v-.694c0-.89-.34-2.156-1.84-2.156h-3.72v7.364h5.9c2.95 0 3.02-2.464 3.02-3.378v-.449H1.1v5.512h-16.55v-1.685h.37c1.43 0 2.17-.174 2.17-1.464V-2.273c0-1.499-.99-1.719-1.91-1.719h-.53v-1.682H1.49V0H0Z" style="fill:#000;fill-opacity:1;fill-rule:nonzero;stroke:none" transform="matrix(2.46057 0 0 -2.46057 238.913 40.12)"/><path d="M0 0v-1.685h.47c1.64 0 2.23-.558 2.23-1.971v-11.541L-7.71 0h-5.46v-1.685h.51c1.01 0 1.8-.411 1.8-2.012v-13.612c0-1.379-.99-1.814-1.75-1.814h-.7v-1.682h7.09v1.682h-.67c-.76 0-1.9.194-1.9 1.814v12.715L2.33-20.805h2.43v17.149c0 1.413.58 1.971 2.22 1.971h.43V0H0Z" style="fill:#000;fill-opacity:1;fill-rule:nonzero;stroke:none" transform="matrix(2.46057 0 0 -2.46057 280.767 2.889)"/><path d="M0 0c-4.14 0-7.42 3.945-7.42 9.284 0 5.787 2.36 9.532 7.02 9.532 3.86 0 5.39-1.983 5.99-4.456h1.47c-.18 1.468-.44 4.024-.42 4.592-1.29.272-3.69 1.508-7.28 1.508-6.35 0-10.93-4.344-10.93-11.176 0-6.678 5.29-10.929 10.87-10.929 2.58 0 5.14.603 7.3 2.214.1.535.46 2.097.83 3.356H5.82C4.62 1.075 2.4 0 0 0" style="fill:#000;fill-opacity:1;fill-rule:nonzero;stroke:none" transform="matrix(2.46057 0 0 -2.46057 29.469 51.343)"/></svg>