<svg xmlns="http://www.w3.org/2000/svg" viewBox="0 0 167.244 49.925"><path d="M19.608 32.041a20.156 20.156 0 0 0 2.797 5.113 25.844 25.844 0 0 0 12.482-7.216 20.33 20.33 0 0 0-3.04-4.974 20.303 20.303 0 0 1-12.24 7.077Z" style="fill:#16ab03"/><path d="M22.39 12.771a20.168 20.168 0 0 0-2.785 5.116 20.303 20.303 0 0 1 12.242 7.077 20.33 20.33 0 0 0 3.04-4.974 25.844 25.844 0 0 0-12.496-7.219Z" style="fill:#5e33bf"/><path d="M19.608 32.041a20.142 20.142 0 0 1-.585-12.334c.166-.62.362-1.226.582-1.82a20.343 20.343 0 0 0-5.822-.137 25.842 25.842 0 0 0-.003 14.428 20.348 20.348 0 0 0 5.828-.137ZM51.463 31.491a5.256 5.256 0 0 0 5.3-3.71h4.27a9.603 9.603 0 0 1-9.57 7.282 9.878 9.878 0 0 1-10.184-10.1 9.878 9.878 0 0 1 10.184-10.1 9.603 9.603 0 0 1 9.57 7.281h-4.27a5.255 5.255 0 0 0-5.3-3.71c-3.683 0-6.138 2.79-6.138 6.528s2.455 6.53 6.138 6.53ZM66.642 34.728h-3.6V15.197h3.6ZM76.63 26.218c0-.92-.725-1.507-2.12-1.507a8.685 8.685 0 0 0-3.85 1.2l-1.423-2.734a10.936 10.936 0 0 1 5.469-1.563c2.901 0 5.552 1.34 5.552 4.716v8.398h-3.627v-1.2a4.307 4.307 0 0 1-3.572 1.535 4.189 4.189 0 0 1-4.464-4.018c0-2.428 1.786-3.934 4.632-3.934h2.51c.615 0 .894-.28.894-.754Zm0 3.934v-.92a1.577 1.577 0 0 1-1.115.278h-1.367c-1.144 0-1.814.502-1.814 1.395 0 .865.697 1.507 1.814 1.507a2.21 2.21 0 0 0 2.483-2.26ZM90.247 25.52h-1.534c-1.842 0-2.679.865-2.679 3.097v6.11h-3.627V21.95h3.515v2.037a3.366 3.366 0 0 1 3.32-2.204 4.11 4.11 0 0 1 1.005.111ZM97.362 34.728h-3.627v-9.71h-1.786V21.95h5.413Zm-1.981-19.531a2.34 2.34 0 0 1 2.344 2.344 2.33 2.33 0 0 1-4.66 0 2.334 2.334 0 0 1 2.316-2.344ZM105.51 30.822l2.901-8.873h3.823l-4.548 12.779h-4.492L98.84 21.949h3.934ZM120.437 26.218c0-.92-.725-1.507-2.12-1.507a8.685 8.685 0 0 0-3.85 1.2l-1.424-2.734a10.935 10.935 0 0 1 5.469-1.563c2.902 0 5.552 1.34 5.552 4.716v8.398h-3.627v-1.2a4.308 4.308 0 0 1-3.571 1.535 4.189 4.189 0 0 1-4.464-4.018c0-2.428 1.785-3.934 4.631-3.934h2.511c.614 0 .893-.28.893-.754Zm0 3.934v-.92a1.577 1.577 0 0 1-1.116.278h-1.367c-1.144 0-1.814.502-1.814 1.395 0 .865.698 1.507 1.814 1.507a2.21 2.21 0 0 0 2.483-2.26ZM131.068 17.094v4.855h2.762v3.07h-2.762v5.775c0 .809.642.92 1.2.92.92 0 1.674-.083 1.674-.083v3.097s-1.758.167-2.818.167c-1.814 0-3.683-.307-3.683-2.874v-7.003h-2.01V21.95h2.01v-4.855ZM148.311 29.399h-9.514a3.034 3.034 0 0 0 5.497 1.255l3.766.39a6.85 6.85 0 0 1-13.085-2.705 6.472 6.472 0 0 1 6.64-6.725c3.516 0 6.696 2.288 6.696 7.645Zm-9.598-2.428h5.72a2.772 2.772 0 0 0-2.818-2.343 2.85 2.85 0 0 0-2.902 2.343ZM150.277 16.118h-.978v2.57h-1.017v-2.57h-.978v-.903h2.973ZM152.262 17.944l-.447-1.24v1.984h-.977v-3.474h1.341l.507 1.45.542-1.45h1.262v3.474h-.997v-1.984l-.447 1.24Z"/></svg>