<svg xmlns="http://www.w3.org/2000/svg" xmlns:xlink="http://www.w3.org/1999/xlink" id="Layer_1" data-name="Layer 1" viewBox="0 0 240.5 91.05"><defs><radialGradient id="radial-gradient" cx="298.51" cy="317.3" r="8.59" gradientUnits="userSpaceOnUse"><stop offset="0" stop-color="#fff"/><stop offset=".12" stop-color="#f3f3f3"/><stop offset=".33" stop-color="#d4d4d4"/><stop offset=".6" stop-color="#a1a1a2"/><stop offset=".94" stop-color="#5b5b5d"/><stop offset="1" stop-color="#4d4d4f"/></radialGradient><radialGradient xlink:href="#radial-gradient" id="radial-gradient-2" cx="300.2" cy="322.51" r="14.17"/><radialGradient xlink:href="#radial-gradient" id="radial-gradient-3" cx="298.37" cy="328.94" r="19.63"/><radialGradient xlink:href="#radial-gradient" id="radial-gradient-4" cx="294.21" cy="336.29" r="24.05"/><radialGradient xlink:href="#radial-gradient" id="radial-gradient-5" cx="288.75" cy="344.18" r="26.44"/><radialGradient xlink:href="#radial-gradient" id="radial-gradient-6" cx="282.79" cy="352.37" r="26.07"/><radialGradient xlink:href="#radial-gradient" id="radial-gradient-7" cx="277.61" cy="360.13" r="23.07"/><radialGradient xlink:href="#radial-gradient" id="radial-gradient-8" cx="273.81" cy="367.41" r="18.32"/><radialGradient xlink:href="#radial-gradient" id="radial-gradient-9" cx="272.96" cy="373.78" r="12.86"/><style>.cls-1{fill:#4d4d4f}.cls-2{fill:#c61e24}</style></defs><path d="M22.91 3.34H1.77c-.49 0-1.77 0-1.77 1.13 0 .23.1 1 1.37 1a15.24 15.24 0 0 1 2.59.22c2.21.47 2.62 1.38 2.77 4.06.16 2.52.16 4.74.16 17.08v13.94c0 4.56-.14 8.62-.26 11.88-.07 2.12-.14 4-.14 5.31a4.8 4.8 0 0 1-4.15 5c-1.2 0-1.29.74-1.29 1 0 1.13 1.28 1.13 1.77 1.13h25.4c10.1 0 18.56-3.25 24.44-9.41A33.1 33.1 0 0 0 61.36 33c0-10.19-4.26-16.76-7.83-20.47-9-9.3-22.54-9.23-30.62-9.19Zm-8.37 22.21c0-6 0-14.17.08-16.87 0-.72.17-.91.68-1.14a21.64 21.64 0 0 1 4.92-.5c10.32 0 18.61 1.5 25.54 8.8a28 28 0 0 1 7.47 19.61c0 7.6-2.43 14.89-6.19 18.58a26.17 26.17 0 0 1-18.5 7.22c-9.12 0-12.13-1.61-13.06-3-.58-.8-.73-4.52-.78-5.76-.07-1.43-.16-8.4-.16-17.16ZM239.35 63.43a1.49 1.49 0 0 0-1.22-.4 9.88 9.88 0 0 1-2.95-.46c-1.7-.48-3.81-1.87-6.48-8.49-3.45-8.59-10.74-27.64-15.1-39-1.75-4.56-3-7.87-3.36-8.73-.95-2.46-1.35-3.17-2.2-3.17s-1.24.73-2.22 3.42l-18 49.19c-1.36 3.78-2.43 6.77-5.8 7.2a13.08 13.08 0 0 1-2.88 0c-2.07-.64-3.12-2-4.34-3.63l-.13-.17c-1.21-1.56-9.22-15.05-13.52-22.3l-3-5 12.57-18.9.16-.24c2.17-3.21 3.6-5.33 5.7-6a8.46 8.46 0 0 1 2.44-.36c.94 0 1.37-.55 1.37-1.06 0-.31-.17-1.05-1.77-1.05h-6.08c-2.12-.07-3.38 2-5 4.63-.24.4-.49.81-.76 1.23s-.75 1.22-1.5 2.45c-2.5 4.07-7.51 12.24-9.69 15.5-3.47-5.77-6.57-11.27-10.28-18.24l-.39-.73c-.53-1-1.19-2.19-1.51-2.72a4.8 4.8 0 0 0-4.12-2.06c-2.2-.08-5.56-.07-8-.06h-1.43c-.6 0-1.84 0-1.84 1.05a1.09 1.09 0 0 0 1.21 1.06 13.76 13.76 0 0 1 3.16.52c2.43.86 4 2.9 5.91 6.12l12.56 21.03-14.17 22.39c-2.55 4.07-4.14 5.63-6.28 6.2a12.06 12.06 0 0 1-2.88.38 1.06 1.06 0 0 0-1.14 1.06c0 .31.13 1.05 1.29 1.05h14.78c1.34 0 1.45-.81 1.45-1.05a1.06 1.06 0 0 0-1.14-1.06 9.67 9.67 0 0 1-1.39-.15 1 1 0 0 1-.88-1 7.39 7.39 0 0 1 1-3.23l12.2-19.81c4.15 7 8.58 14.54 12.92 22.41.5.9 2 3.65 4.54 3.74 4 .16 15.88.16 16.38.16a5.21 5.21 0 0 0 4.53-3.82 42.46 42.46 0 0 1 1.39-5.2l4.74-14c.13-.32.24-.32.33-.32h17c.15 0 .17 0 .24.16l7.37 19.48c.48 1.28 2.06 3.67 4.63 3.67h.11c4-.1 5.75 0 6.92 0h1.49c1.23 0 2.93.07 3.17-1a.8.8 0 0 0-.11-.69Zm-25-25.51h-14.68l6.94-21.28a2.2 2.2 0 0 1 .12-.32l.12.33Z" class="cls-1"/><circle cx="100.45" cy="34.69" r="31.05" class="cls-2"/><path d="M9.03 77.27v13.62H6.86V77.27ZM16.2 90.89V77.27h2l2.28 5.82c.47 1.23 1.15 3 1.58 4.3-.1-1.74-.23-3.84-.23-6.28v-3.84h1.9v13.62h-2l-2.3-5.8a45.47 45.47 0 0 1-1.47-4.32c.08 1.57.16 3.49.16 6.32v3.8ZM30.62 88.58a4.51 4.51 0 0 0 2.1.55 1.84 1.84 0 0 0 2.06-1.9c0-1.09-.67-1.72-1.78-2.48a4.84 4.84 0 0 1-2.56-3.8 3.68 3.68 0 0 1 4-3.8 4.45 4.45 0 0 1 2 .48l-.41 1.86a3.08 3.08 0 0 0-1.67-.46 1.65 1.65 0 0 0-1.82 1.65c0 1.06.54 1.54 1.94 2.43a4.56 4.56 0 0 1 2.4 3.9 3.88 3.88 0 0 1-4.18 4 5.09 5.09 0 0 1-2.47-.57ZM45.44 77.27v9c0 2.2.69 2.91 1.56 2.91s1.55-.69 1.55-2.91v-9h2.16v8.61c0 3.51-1.37 5.17-3.73 5.17s-3.7-1.68-3.7-5.07v-8.71ZM57.86 77.47a11.78 11.78 0 0 1 2.61-.26 4.8 4.8 0 0 1 3.37 1 4 4 0 0 1-1.11 6.2c.95.35 1.45 1.25 1.72 2.87a20.62 20.62 0 0 0 .85 3.58h-2.25a18.74 18.74 0 0 1-.7-3.32c-.27-1.75-.77-2.34-1.84-2.34H60v5.66h-2.14Zm2.14 6.1h.57a2.15 2.15 0 0 0 2.1-2.4c0-1.33-.53-2.24-1.94-2.26a2.63 2.63 0 0 0-.73.08ZM73.53 87.33l-.72 3.56h-2.1l3-13.62h2.52l2.81 13.62h-2.1l-.73-3.56Zm2.49-1.68-.57-3.13c-.16-.89-.34-2.14-.5-3.09h-.09c-.14.95-.35 2.24-.51 3.09l-.6 3.13ZM85.43 90.89V77.27h2l2.28 5.82c.47 1.23 1.15 3 1.58 4.3-.1-1.74-.22-3.84-.22-6.28v-3.84h1.89v13.62h-2l-2.3-5.8a45.47 45.47 0 0 1-1.47-4.32c.08 1.57.16 3.49.16 6.32v3.8ZM106.41 90.66a4.65 4.65 0 0 1-2 .35c-3.11 0-4.88-2.55-4.88-6.75 0-5.23 2.76-7.11 5.19-7.11a3.81 3.81 0 0 1 1.77.34l-.4 1.82a2.84 2.84 0 0 0-1.29-.26c-1.48 0-3 1.35-3 5.07s1.37 5 3 5a3.59 3.59 0 0 0 1.33-.24ZM118.09 84.68h-3.23v4.33h3.68v1.88h-5.84V77.27h5.6v1.86h-3.44v3.74h3.24ZM135.17 77.27v5.64h3.23v-5.64h2.17v13.62h-2.17v-6h-3.23v6h-2.16V77.27ZM155.35 83.9c0 5.13-1.8 7.15-4.2 7.15-2.71 0-4.06-2.89-4.06-7s1.53-6.95 4.26-6.95 4 3.14 4 6.8Zm-6 .18c0 3 .56 5.09 1.94 5.09s1.84-2.44 1.84-5.17c0-2.47-.41-5-1.86-5s-1.94 2.23-1.94 5.13ZM161.86 77.27h2.16v11.8h3.64v1.82h-5.8ZM173.99 77.47a10.23 10.23 0 0 1 2.42-.26 4.93 4.93 0 0 1 3.52 1.13c1.11 1 1.8 2.77 1.8 5.5 0 2.93-.73 4.74-1.78 5.75a5.31 5.31 0 0 1-4 1.4 16.49 16.49 0 0 1-2-.14Zm2.14 11.7a2.46 2.46 0 0 0 .52 0c1.48 0 2.85-1.25 2.85-5.39 0-3.09-.89-4.87-2.74-4.87a3 3 0 0 0-.63.06ZM190.41 77.27v13.62h-2.16V77.27ZM197.58 90.89V77.27h2l2.28 5.86c.46 1.23 1.15 3 1.58 4.3-.11-1.74-.23-3.84-.23-6.28v-3.84h1.9v13.62h-2l-2.25-5.8a45.45 45.45 0 0 1-1.48-4.32c.08 1.57.17 3.49.17 6.32v3.8ZM219.47 90.52a7.83 7.83 0 0 1-2.65.49 4.51 4.51 0 0 1-3.45-1.34 7.81 7.81 0 0 1-1.7-5.47c0-5.11 2.83-7.05 5.5-7.05a4.79 4.79 0 0 1 2.1.4l-.43 1.86a3.17 3.17 0 0 0-1.55-.32c-1.76 0-3.37 1.29-3.37 5.13s1.41 5 2.82 5a1.84 1.84 0 0 0 .73-.1V85.3h-1.45v-1.76h3.45ZM225.97 88.58a4.57 4.57 0 0 0 2.1.55 1.84 1.84 0 0 0 2.06-1.9c0-1.09-.66-1.72-1.77-2.48a4.83 4.83 0 0 1-2.57-3.8 3.68 3.68 0 0 1 4-3.8 4.38 4.38 0 0 1 2 .48l-.4 1.86a3.11 3.11 0 0 0-1.68-.46 1.66 1.66 0 0 0-1.82 1.65c0 1.06.55 1.54 1.94 2.43a4.54 4.54 0 0 1 2.4 3.9 3.88 3.88 0 0 1-4.18 4 5 5 0 0 1-2.46-.57ZM234.86 77.54h.6v3.28h1v.5h-1.6ZM236.86 77.54h.6v3.28h1v.5h-1.6ZM240.48 81.26a1.27 1.27 0 0 1-.56.1c-.86 0-1.35-.71-1.35-1.88 0-1.45.77-2 1.44-2a1.16 1.16 0 0 1 .49.09l-.11.51a.78.78 0 0 0-.36-.07c-.41 0-.83.37-.83 1.4s.38 1.38.84 1.38a1.24 1.24 0 0 0 .37-.06Z" class="cls-2"/><path d="M307 319.42c-5.61-3.92-16.3-6.19-19.79-6.55.65.25 1.92.67 4.63 1.53 9 2.87 14.49 5.05 18 7.32-.86-.77-1.76-1.5-2.69-2.19Z" style="fill:url(#radial-gradient)" transform="translate(-186.14 -312.87)"/><path d="M285.47 312.87c-2.43.15-2.79.58-2.83.78-.22 1.2 6.49 3.89 10.5 5.49 9.6 3.84 20.32 8.12 24.62 13-.09-.18-.19-.36-.28-.55a37.23 37.23 0 0 0-1.9-3.22c-3.84-5.23-10.25-7.62-27.39-14-2.1-.8-2.29-1-2.66-1.4Z" style="fill:url(#radial-gradient-2)" transform="translate(-186.14 -312.87)"/><path d="M275.51 315.72c-.26 1.51 2.33 4.56 16.09 10.46 17.75 7.61 27.26 12.61 29.64 18.49a36.215 36.215 0 0 0-.71-4.68c-1.73-7.3-11.09-11.39-33.69-21.27-1.08-.47-4.37-1.92-5.65-3.13-.64-.61-.88-1.17-.7-1.66a1.44 1.44 0 0 1 .71-.72c-4.38.61-5.55 1.66-5.69 2.51Z" style="fill:url(#radial-gradient-3)" transform="translate(-186.14 -312.87)"/><path d="M320.9 353.17c.86-9.59-9.68-14.52-37.87-27.71-2.57-1.23-3.91-2-5.36-2.83-3.55-2.12-5.16-3.94-4.93-5.56a2.77 2.77 0 0 1 1.2-1.8c-.62.25-1.33.54-2.14.89-2.91 1.45-4.37 3.07-4.33 4.79.11 4.56 10.34 9.68 20.33 14.09 19.36 8.54 31.66 15.37 32.16 22.27a34.88 34.88 0 0 0 .94-4.14Z" style="fill:url(#radial-gradient-4)" transform="translate(-186.14 -312.87)"/><path d="M316.54 365.17c1.18-2.3 1.45-4.24.84-6.08-2-6.07-13.75-12-39.53-25-9-4.61-13.25-8.2-13.49-11.3a3.66 3.66 0 0 1 .6-2.29c-1 .82-2 1.74-2.87 2.51l-.38.38a5.74 5.74 0 0 0-1.81 5.1c1.27 6.54 15.06 13 31 20.56 15.8 7.44 22.71 12.19 23.83 16.38a4.66 4.66 0 0 1 0 2.43c.68-.86 1.27-1.77 1.81-2.69Z" style="fill:url(#radial-gradient-5)" transform="translate(-186.14 -312.87)"/><path d="M308.26 374.69c1.4-1.21 3-2.89 3-5s-1.44-4.28-4.39-6.84a66.86 66.86 0 0 0-10.5-6.75c-4-2.16-8.08-4.15-12.08-6.08s-7.87-3.81-11.72-5.89c-9.59-5.28-14.26-9.26-15.14-12.9a5.08 5.08 0 0 1-.06-2.26c-.57.91-1.13 1.85-1.59 2.65s-.69 1.38-1 2.09c-3.75 9.08 14.67 18.44 31.13 25.58 15 6.5 21.24 10.61 21.56 14.21a3.29 3.29 0 0 1-.66 2.29l.31-.22Z" style="fill:url(#radial-gradient-6)" transform="translate(-186.14 -312.87)"/><path d="M303.21 376.23c.39-1.73-1-3.34-1.87-4.15-3.58-3.35-8.64-5.94-17.93-10.15-8.54-3.87-12.16-5.79-14.8-7.19-12.94-7-15.55-11.82-15.87-14.74-.14.63-.27 1.28-.37 1.92-.18 1.25-.32 2.93-.43 4.24-.06 3.88 2.81 7.58 9 11.65 5.48 3.58 11.61 6.11 17.54 8.54 5.71 2.36 11.63 4.79 17 8.18 2.66 1.69 3.85 3.13 3.62 4.4a2.27 2.27 0 0 1-.89 1.34c2.97-1.13 4.65-2.48 5-4.04Z" style="fill:url(#radial-gradient-7)" transform="translate(-186.14 -312.87)"/><path d="M295.27 379.73c.09-.9-.9-2.06-2.88-3.36-4.9-3.21-10.37-5.49-15.65-7.69-3.22-1.34-6.54-2.72-9.71-4.31-10-5.14-13.41-8.66-14.69-11.46v.27c.33 1.61.86 3.76 1.32 5.33l.13.39c2.41 6.41 14.41 11.62 26.49 16.41 6.25 2.48 9.69 3.84 10.87 5.09.39.42.52.81.37 1.16a.87.87 0 0 1-.27.34 11.55 11.55 0 0 0 2.18-.57c1.17-.44 1.77-.98 1.84-1.6Z" style="fill:url(#radial-gradient-8)" transform="translate(-186.14 -312.87)"/><path d="M286.67 380.08c-3.32-1.65-6.83-3-10.22-4.34-2.65-1-5.39-2.1-8-3.3-6.42-3-9.69-5.24-11.55-7.14.59 1 1.22 1.94 1.76 2.74.4.56.84 1.11 1.28 1.65 3.11 3.52 9.35 6.56 21.56 10.46A51.18 51.18 0 0 1 287 382h.09l.05.19a4.6 4.6 0 0 0 1.56-.2c.25-.09.39-.2.4-.29s-.43-.64-2.43-1.62Z" style="fill:url(#radial-gradient-9)" transform="translate(-186.14 -312.87)"/></svg>