<svg xmlns="http://www.w3.org/2000/svg" width="972" height="305"><g fill="#58585a" fill-rule="evenodd"><g fill-rule="nonzero"><path d="M68.1 258.3v46H52v-46H36.9v-13.7h47.3v13.7zM118.5 244.1c7.4 0 12.6.7 15.8 2.1 5.6 2.5 9 6.8 10.3 13.1.5 2.6.8 7.7.8 15.5 0 6.5-.2 11-.6 13.4-1.2 6.8-4.4 11.5-9.7 14-3.8 1.8-10 2.7-18.6 2.7-8.3 0-14.2-1.1-17.8-3.2-4.5-2.8-7.3-6.9-8.3-12.4-.4-2.3-.7-6.1-.7-11.5 0-10 .5-16.9 1.6-20.7 1.5-5.2 5.3-8.9 11.5-11.1 3.2-1.4 8.4-1.9 15.7-1.9zm-.4 13.7c-3.7 0-6.2.2-7.6.8-2.2.9-3.6 3.4-4.1 7.4-.1.7-.1 3.7-.1 9.2 0 6.2.4 10.2 1.1 12 .7 1.7 2.2 2.8 4.6 3.3 1.1.2 3.1.4 6 .4 2.8 0 4.8-.2 5.9-.5 2-.6 3.3-1.9 4.1-3.8.8-2 1.2-6.3 1.2-12.9 0-6.5-.4-10.6-1.1-12.3s-2.1-2.8-4.2-3.3c-1.2-.1-3.1-.3-5.8-.3zM152.5 304.3v-59.8h29.9c4.1 0 7.3.3 9.4 1 4.9 1.5 8.2 4.7 9.9 9.5.9 2.5 1.3 6.3 1.3 11.4 0 6.1-.5 10.4-1.4 13-1.9 5.2-5.9 8.2-11.9 9.1-.1 0-3.1.1-9 .3h-12.3v15.5zm16.1-29.2h10c3 0 4.9-.2 5.9-.7 1.5-.8 2.2-3.4 2.2-7.8 0-4.6-1-7.4-2.9-8.2-1-.4-2.7-.7-5.1-.7h-10.2v17.4zM266.1 244.5v59.8H250v-23.5h-20.8v23.5h-16.1v-59.8h16.1V267H250v-22.5zM303.8 244.1c7.4 0 12.6.7 15.8 2.1 5.6 2.5 9 6.8 10.3 13.1.5 2.6.8 7.7.8 15.5 0 6.5-.2 11-.6 13.4-1.2 6.8-4.4 11.5-9.7 14-3.8 1.8-10 2.7-18.6 2.7-8.3 0-14.2-1.1-17.8-3.2-4.5-2.8-7.3-6.9-8.3-12.4-.4-2.3-.7-6.1-.7-11.5 0-10 .5-16.9 1.6-20.7 1.5-5.2 5.3-8.9 11.5-11.1 3.2-1.4 8.4-1.9 15.7-1.9zm-.4 13.7c-3.7 0-6.2.2-7.6.8-2.2.9-3.6 3.4-4.1 7.4-.1.7-.1 3.7-.1 9.2 0 6.2.4 10.2 1.1 12 .7 1.7 2.2 2.8 4.6 3.3 1.1.2 3.1.4 6 .4 2.8 0 4.8-.2 5.9-.5 2-.6 3.3-1.9 4.1-3.8.8-2 1.2-6.3 1.2-12.9 0-6.5-.4-10.6-1.1-12.3s-2.1-2.8-4.2-3.3c-1.2-.1-3.1-.3-5.8-.3zM366.8 258.3v46h-16.1v-46h-15.1v-13.7h47.3v13.7zM405 257.7v10.8h25.5v11.1H405v11.6h27.8v13.1H389v-59.8h43.3v13.1H405zM462 244.5v46h25.1v13.7h-41.2v-59.8H462zM493.2 304.3v-59.8h29.9c4.1 0 7.3.3 9.4 1 4.9 1.5 8.2 4.7 9.9 9.5.9 2.5 1.3 6.3 1.3 11.4 0 6.1-.5 10.4-1.4 13-1.9 5.2-5.9 8.2-11.9 9.1-.1 0-3.1.1-9 .3h-12.3v15.5zm16-29.2h10c3 0 4.9-.2 5.9-.7 1.5-.8 2.2-3.4 2.2-7.8 0-4.6-1-7.4-2.9-8.2-1-.4-2.7-.7-5.1-.7h-10.2v17.4zM549.7 304.3v-59.8h30.2c6.2 0 10.7.6 13.4 1.8 3.2 1.5 5.4 3.8 6.6 6.9.9 2.4 1.4 5.6 1.4 9.7 0 7.9-1.3 13-4 15.2-1.3 1.1-3.7 2-7.3 2.8v.7c7.2.4 10.8 4.3 10.8 11.7v10.9h-16.3v-8c0-5.3-2.2-7.9-6.7-7.9h-11.9v15.9h-16.2zm16.1-29.5h12.7c3.2 0 5.1-.9 5.7-2.7.4-1.1.6-3.4.6-6.7 0-2.9-.4-4.8-1.3-5.7s-2.8-1.4-5.7-1.4h-12zM639.4 244.1c7.4 0 12.6.7 15.8 2.1 5.6 2.5 9 6.8 10.3 13.1.5 2.6.8 7.7.8 15.5 0 6.5-.2 11-.6 13.4-1.2 6.8-4.4 11.5-9.7 14-3.8 1.8-10 2.7-18.6 2.7-8.3 0-14.2-1.1-17.8-3.2-4.5-2.8-7.3-6.9-8.3-12.4-.4-2.3-.7-6.1-.7-11.5 0-10 .5-16.9 1.6-20.7 1.5-5.2 5.3-8.9 11.5-11.1 3.2-1.4 8.4-1.9 15.7-1.9zm-.4 13.7c-3.7 0-6.2.2-7.6.8-2.2.9-3.6 3.4-4.1 7.4-.1.7-.1 3.7-.1 9.2 0 6.2.4 10.2 1.1 12 .7 1.7 2.2 2.8 4.6 3.3 1.1.2 3.1.4 6 .4 2.8 0 4.8-.2 5.9-.5 2-.6 3.3-1.9 4.1-3.8s1.2-6.3 1.2-12.9c0-6.5-.4-10.6-1.1-12.3s-2.1-2.8-4.2-3.3c-1.2-.1-3.1-.3-5.8-.3zM713.8 244.5v40.4c0 3.9-.1 6.3-.2 7.2-.3 2.7-1.1 4.9-2.3 6.7-1.9 2.6-4.5 4.3-7.9 5.2-2 .5-5.2.7-9.7.7-7.3 0-12.1-.6-14.5-1.9-3.2-1.7-5.3-4.5-6.2-8.5-.5-2-.7-5.7-.7-11.1 0-1.2 0-2.6.1-4h14.9v1.2c0 4.5.1 7.3.4 8.2.4 1.5 2.1 2.3 4.9 2.3s4.5-1 4.9-3.1c.1-.6.2-2.1.2-4.7v-38.7h16.1zM741.3 257.7v10.8h25.5v11.1h-25.5v11.6H769v13.1h-43.8v-59.8h43.3v13.1h-27.2zM815.4 281.7h15.8v1.8c0 3.4-.1 5.8-.3 7.1-.3 2.8-1 5-2.1 6.7-2.6 3.8-6.3 6.2-11.2 7-1.8.3-5.8.5-11.8.5-4.5 0-7.4 0-8.5-.1-3.3-.2-6-.8-8.2-1.8-6.3-2.9-9.7-8.9-10.2-18.1-.2-3.9-.3-9.1-.3-15.6 0-4.5.3-7.9.8-10.3.8-3.7 2.4-6.7 4.7-8.9 2.8-2.7 6.5-4.4 11-5.2 2.4-.4 6.5-.6 12.4-.6 6.5 0 11 .4 13.6 1.3 5.8 1.9 9 6.5 9.5 13.9.1 1.1.2 3.3.2 6.6h-15.9v-1.2c-.1-3.2-1-5.2-2.8-6-1.1-.6-3.5-.8-7.2-.8-5.1 0-8.1 1.4-9.1 4.2-.6 1.7-.9 7.6-.9 17.8 0 4.5.6 7.4 1.9 8.8 1.3 1.6 4.2 2.4 8.5 2.4 3.5 0 6-.4 7.3-1.1 1.8-1.1 2.7-3.2 2.7-6.3.1-.6.1-1.2.1-2.1zM868.4 258.3v46h-16.1v-46h-15.1v-13.7h47.3v13.7zM937.6 263.2h-15.2c0-1.9-.1-3.3-.4-4-.4-1.3-1.4-2.1-2.8-2.5-1.1-.3-2.8-.4-5.1-.4-3.4 0-5.7.2-6.7.6-2 .8-3 2.5-3 5.3 0 2.2.6 3.7 1.7 4.4.8.5 2.9.9 6.3 1.1l9.3.6c3.6.3 6.7.8 9.2 1.6 3.5 1.1 5.9 3.1 7.2 6 1 2.1 1.4 5.3 1.4 9.6 0 4.8-.5 8.4-1.4 10.7-1.7 4.2-5.5 6.8-11.4 7.9-2.5.5-6.4.7-11.8.7-8.2 0-14-.5-17.4-1.5-5.4-1.6-8.4-5.7-9-12.2-.1-1.5-.2-3.5-.2-6.1h15.2v1.2c0 2.7.8 4.5 2.3 5.2 1.1.6 4.1.8 8.9.8h4.2c1.6-.2 2.8-.8 3.7-1.8.8-.8 1.1-2.3 1.1-4.2 0-2.3-.7-3.8-2.1-4.6-.8-.4-2.7-.7-5.4-.9-9.2-.6-15.1-1.2-17.8-1.8-4.1-1-6.8-3-8.4-6.2-1.2-2.4-1.8-6-1.8-10.7 0-7.1 1.7-11.8 5-14.1 2.4-1.7 5.7-2.8 9.9-3.3 2.2-.3 5.8-.4 10.6-.4 9.7 0 16 1.1 18.9 3.3 3.4 2.5 5.1 6.9 5.1 13-.1.4-.1 1.4-.1 2.7z"/></g><path d="M694.3 182.3h-40.8V15.8l-5.2 3.8-7.1 5.3-3.3 3.2-3.8 4.3-4.3 4.3-3.8 4.7-6.2 9-5.6 10.9-3.4 6.2-2.8 7.1-2.9 7.2-2.3 8-2.4 8.5-2.3 9.1-2 9.9-1.4 10.5-1.4 11.4-1 11.8-.9 12.3v19h-35.6V65.6h-13.3V26.7h-57.4v97.8h-16.6v20.8h-26.1v37H413V96h-41.7v38.9h-17.6V151h-35V61.3L303 52.8l-15.7 8.5v121H247V151h-7.1v-16.6h-31.3V151h-20.9v31.3H.3l177-10.4v-31.3h20.9V124h52.1v16.6h7.1v31.3h19.5V55.2L303 41l26.1 14.2v85.4h14.2v-16.1h17.6V85.6h62.6v86.3h8.5v-37h26.1V114h16.6V16.3H553v38.9h13.3v116.7H581l.4-13.3.5-12.3 1.4-11.9 1.5-10.9 1.4-10.4 2.4-10 1.8-9.5 2.9-8.5 2.4-8.1 3.3-7.6 2.8-7.1 3.3-6.6 3.4-6.2 3.3-5.7 6.6-9.9 7.1-8.1 6.7-7.1 6.1-5.3 6.2-3.8 4.8-3.2 3.7-2 4.3-1.9L664 .6v171.3h19.9V124h28l16.6-18.5h55v19h17.1v47.4l171.7 10.4H790.2v-47.4h-17.1v-19h-39.9l-16.6 18.5h-22.3z"/></g></svg>