<svg xmlns="http://www.w3.org/2000/svg" width="36" height="37" fill="none"><path fill="#FFCC4D" d="M36 18.174c0 9.94-8.059 18-18 18s-18-8.06-18-18c0-9.941 8.059-18 18-18s18 8.059 18 18Z"/><path fill="#664500" d="M18 22.023c-2.967 0-4.936-.346-7.37-.82-.557-.105-1.638 0-1.638 1.639 0 3.275 3.763 7.369 9.007 7.369s9.007-4.094 9.007-7.37c0-1.637-1.082-1.744-1.638-1.637-2.434.473-4.402.819-7.369.819Z"/><path fill="#DD2E44" d="M16.651 3.455a4.666 4.666 0 0 0-8.884.254 4.666 4.666 0 0 0-4.225-.58A4.67 4.67 0 0 0 .693 9.085c.122.344.284.663.472.958 1.951 3.582 7.588 6.1 11.001 6.13 2.637-2.166 5.446-7.664 4.718-11.676a4.712 4.712 0 0 0-.233-1.042Zm2.7 0a4.67 4.67 0 0 1 5.956-2.85 4.67 4.67 0 0 1 2.93 3.104 4.666 4.666 0 0 1 4.224-.58 4.671 4.671 0 0 1 2.85 5.956 4.72 4.72 0 0 1-.473.958c-1.95 3.582-7.588 6.1-11.002 6.13C21.2 14.008 18.391 8.51 19.12 4.498c.037-.348.112-.698.232-1.042Z"/></svg>